<?xml version="1.0" standalone="no"?>
<!DOCTYPE svg PUBLIC "-//W3C//DTD SVG 20010904//EN"
 "http://www.w3.org/TR/2001/REC-SVG-20010904/DTD/svg10.dtd">
<svg version="1.0" xmlns="http://www.w3.org/2000/svg"
 width="1146.000000pt" height="1146.000000pt" viewBox="0 0 1146.000000 1146.000000"
 preserveAspectRatio="xMidYMid meet">
<metadata>
Created by potrace 1.11, written by Peter Selinger 2001-2013
</metadata>
<g transform="translate(0.000000,1146.000000) scale(0.100000,-0.100000)"
fill="#000000" stroke="none">
<path d="M3920 10058 c-171 -8 -320 -31 -486 -73 -178 -46 -299 -91 -489 -184
-398 -195 -726 -483 -979 -859 -86 -129 -215 -383 -271 -536 -168 -457 -193
-1001 -70 -1482 46 -178 91 -299 184 -489 195 -398 483 -726 859 -979 129 -86
383 -215 536 -271 456 -167 992 -193 1472 -70 178 46 299 91 489 185 173 84
351 198 484 310 46 38 89 70 95 70 6 0 49 -32 96 -71 102 -85 284 -209 401
-272 540 -293 1191 -376 1789 -227 1068 266 1845 1208 1898 2302 13 270 -11
520 -73 763 -153 597 -524 1121 -1036 1464 -456 306 -967 447 -1526 419 -525
-25 -1048 -230 -1453 -567 -47 -39 -90 -71 -96 -71 -6 0 -49 32 -95 70 -192
161 -495 334 -743 425 -300 110 -644 160 -986 143z m495 -402 c390 -73 745
-238 1026 -479 l47 -40 -48 -61 c-69 -89 -139 -198 -202 -311 -229 -417 -330
-860 -306 -1354 23 -496 208 -1001 508 -1387 l48 -61 -47 -40 c-282 -242 -634
-406 -1031 -480 -137 -25 -573 -25 -710 0 -466 87 -833 278 -1156 601 -323
323 -514 690 -601 1156 -25 136 -25 564 0 700 87 466 278 833 601 1156 178
178 339 295 554 403 222 111 430 173 727 215 77 11 504 -2 590 -18z m3370 0
c374 -69 705 -218 981 -440 347 -279 612 -686 724 -1110 57 -218 65 -279 65
-556 0 -277 -8 -338 -65 -556 -76 -286 -231 -585 -420 -809 -337 -400 -760
-643 -1290 -742 -136 -25 -564 -25 -700 0 -381 71 -709 218 -986 441 -346 279
-612 686 -723 1106 -58 222 -66 282 -66 560 0 278 8 338 66 560 75 283 230
581 419 805 351 417 811 672 1350 750 132 19 522 14 645 -9z"/>
<path d="M2280 3540 l0 -260 1910 0 1910 0 0 260 0 260 -1910 0 -1910 0 0
-260z"/>
<path d="M7070 3540 l0 -260 840 0 840 0 0 260 0 260 -840 0 -840 0 0 -260z"/>
<path d="M3360 2360 l0 -260 2370 0 2370 0 0 260 0 260 -2370 0 -2370 0 0
-260z"/>
</g>
</svg>
